<?xml version="1.0" encoding="UTF-8" standalone="no"?>
<!-- Created with Inkscape (http://www.inkscape.org/) -->

<svg
   version="1.1"
   id="svg2708"
   width="882.12109"
   height="997.8501"
   viewBox="0 0 882.12111 997.85014"
   sodipodi:docname="1719926377Beer4a.svg"
   inkscape:version="1.3.2 (091e20ef0f, 2023-11-25)"
   xmlns:inkscape="http://www.inkscape.org/namespaces/inkscape"
   xmlns:sodipodi="http://sodipodi.sourceforge.net/DTD/sodipodi-0.dtd"
   xmlns="http://www.w3.org/2000/svg"
   xmlns:svg="http://www.w3.org/2000/svg">
  <defs
     id="defs2712">
    <inkscape:path-effect
       effect="bspline"
       id="path-effect5"
       is_visible="true"
       lpeversion="1.3"
       weight="33.333333"
       steps="2"
       helper_size="0"
       apply_no_weight="true"
       apply_with_weight="true"
       only_selected="false"
       uniform="false" />
  </defs>
  <sodipodi:namedview
     id="namedview2710"
     pagecolor="#ffffff"
     bordercolor="#000000"
     borderopacity="0.25"
     inkscape:showpageshadow="2"
     inkscape:pageopacity="0.0"
     inkscape:pagecheckerboard="0"
     inkscape:deskcolor="#d1d1d1"
     showgrid="false"
     inkscape:zoom="1.0098387"
     inkscape:cx="251.0302"
     inkscape:cy="242.11789"
     inkscape:window-width="1920"
     inkscape:window-height="1011"
     inkscape:window-x="0"
     inkscape:window-y="0"
     inkscape:window-maximized="1"
     inkscape:current-layer="layer1" />
  <g
     inkscape:groupmode="layer"
     id="layer1"
     inkscape:label="Layer 1"
     transform="translate(-68.730588,-31.483223)">
    <path
       style="fill:#ffcc00;stroke-width:7.633"
       d="m 716.33322,214.55463 c 3.19568,-1.88133 17.52729,179.41442 17.52729,179.41442 l 30.68887,6.50219 c 0,0 2.65963,-16.29026 2.65963,-21.78477 0,-5.49451 8.56907,-51.02011 8.56907,-51.02011 l 36.33028,-56.89863 11.67455,-69.3489 -51.49173,-42.24745 c 0,0 -49.63103,-17.26957 -53.68748,-18.58908 -4.05646,-1.31951 -157.50079,-88.649282 -157.50079,-88.649282 h -65.7383 l -53.67717,11.380756 -60.2979,15.055792 -64.29509,-6.540842 -75.31761,-25.624741 -30.20436,7.661908 -40.81713,66.495979 -66.41867,75.04444 -18.223122,20.30032 12.986329,39.89192 c 0,0 38.500253,16.33922 42.798963,16.33922 4.29871,0 17.79789,2.80395 17.79789,0 0,-2.80396 3.76524,-47.85794 3.76524,-47.85794 l 91.73157,-35.17829 128.11082,-23.16612 122.89979,-1.15457 c 0,0 85.42525,14.16667 93.63867,15.62019 8.21342,1.45352 101.50418,30.95689 101.50418,30.95689 z"
       id="path5" />
    <path
       id="path4"
       style="display:inline;fill:#aa8800;stroke-width:1.33333"
       d="m 215.1427,85.48127 c -1.45343,0.03257 -1.8086,0.840282 -1.8086,3.185547 0,2.88648 0.5391,3.4413 3,3.091797 1.96909,-0.279654 3,-1.341498 3,-3.091797 0,-1.750299 -1.03091,-2.814096 -3,-3.09375 -0.46142,-0.06553 -0.856,-0.09931 -1.1914,-0.0918 z m 347.1914,1.77539 c -3.49809,0.0591 -5.7036,3.6035 -3.57226,7.585938 2.19981,4.110379 8.44781,2.892421 8.98437,-1.751953 0.28707,-2.48474 -0.39552,-4.010927 -2.23633,-4.996094 -1.11508,-0.596774 -2.19631,-0.854438 -3.17578,-0.837891 z m -109.05078,0.01953 c -4.19467,-0.03175 -7.20294,4.937685 -3.68359,8.457031 0.88,0.879999 2.56103,1.599609 3.73437,1.599609 5.23607,0 7.20762,-6.901434 2.66602,-9.332031 -0.92516,-0.495131 -1.84621,-0.718019 -2.7168,-0.724609 z M 277.3341,94.76252 c -0.59202,0 -1.18399,0.516029 -2.21875,1.550781 -1.83288,1.83289 -1.92094,2.579678 -0.5039,4.287109 0.94347,1.1368 2.16891,2.06641 2.72265,2.06641 0.55375,0 1.77725,-0.92961 2.72071,-2.06641 1.41704,-1.707431 1.33094,-2.454219 -0.50196,-4.287109 -1.03475,-1.034752 -1.62672,-1.550781 -2.21875,-1.550781 z m 74.75782,22.57031 c -2.70593,0 -3.89577,3.75267 -1.8418,5.80664 1.59047,1.59046 3.7333,0.0969 4.17578,-2.91015 0.32024,-2.17636 -0.25996,-2.89649 -2.33398,-2.89649 z m 149.33789,9.5625 c -1.67342,-0.0289 -3.42447,0.88391 -4.54297,2.66016 -1.01411,1.61046 -0.917,2.80116 0.35351,4.33203 4.0202,4.84404 11.31999,-0.12042 7.61914,-5.18164 -0.87437,-1.19578 -2.12814,-1.78803 -3.42968,-1.81055 z m -74.23047,1.25977 c -1.40953,0.0252 -1.86524,0.72818 -1.86524,2.51172 0,2.19512 0.69109,2.7537 3,2.42578 1.65,-0.23434 3,-1.32578 3,-2.42578 0,-1.1 -1.35,-2.19144 -3,-2.42578 -0.43292,-0.0615 -0.80949,-0.0917 -1.13476,-0.0859 z m 208.94336,5.37695 c -4.55289,0.0225 -6.30434,4.30504 -2.8086,7.80078 3.7288,3.7288 8.35183,1.48732 7.7461,-3.75586 -0.31878,-2.75932 -1.23091,-3.67146 -3.99024,-3.99023 -0.32769,-0.0379 -0.64374,-0.0562 -0.94726,-0.0547 z m -414.8086,2.46875 c -2.50694,0 -4.53432,3.39089 -3.25976,5.45313 0.41233,0.66716 1.87966,1.21289 3.25976,1.21289 1.38011,0 2.84549,-0.54573 3.25782,-1.21289 1.27455,-2.06229 -0.75087,-5.45313 -3.25782,-5.45313 z m 63.35743,5.83594 c -1.28448,0.003 -2.27487,2.01163 -1.35743,3.49609 0.45322,0.73333 1.38808,1.33399 2.07813,1.33399 1.62246,0 1.63315,-3.60848 0.0137,-4.60938 -0.24769,-0.15308 -0.49651,-0.2213 -0.73437,-0.2207 z m 411.66796,21.01953 c -1.07107,0.005 -1.69336,0.65184 -1.69336,1.81055 0,1.28097 0.86234,2.0152 2.07032,1.76367 2.89613,-0.60303 3.07413,-2.96853 0.26367,-3.50977 -0.22804,-0.0439 -0.44228,-0.0654 -0.64063,-0.0644 z m -509.32812,5.21094 c -1.37986,0.0368 -2.88169,0.47149 -4.45313,1.3125 -3.1994,1.71228 -3.39697,7.5041 -0.37109,10.84765 5.81878,6.42969 15.2596,-1.75648 10.46484,-9.07422 -1.37861,-2.10402 -3.34085,-3.14734 -5.64062,-3.08593 z m 545.63476,14.59961 c -1.09999,0 -2,0.9 -2,2 0,1.1 0.90001,2 2,2 1.1,0 2,-0.9 2,-2 0,-1.1 -0.9,-2 -2,-2 z m 46.40821,10.875 c -0.72103,0.0227 -1.43646,0.28607 -2.00781,0.85742 -0.78141,0.78142 -1.04189,2.40588 -0.58008,3.60937 1.06743,2.78164 5.33862,2.04183 5.92968,-1.02734 0.38141,-1.98047 -1.49917,-3.49756 -3.34179,-3.43945 z M 128.00012,214.0008 c -1.1,0 -2.19145,1.35 -2.42578,3 -0.32792,2.30892 0.23066,3 2.42578,3 2.19513,0 2.7537,-0.69108 2.42578,-3 -0.23434,-1.65 -1.32578,-3 -2.42578,-3 z m 635.33398,30 c -1.1,0 -2,0.9 -2,2 0,1.1 0.9,2 2,2 1.1,0 2,-0.9 2,-2 0,-1.1 -0.9,-2 -2,-2 z m 30.74414,0 c -2.22752,0 -3.73064,1.90217 -2.48632,3.14649 1.59353,1.59354 4.4082,0.86182 4.4082,-1.14649 0,-1.1 -0.86516,-2 -1.92188,-2 z m -36.07812,50.66602 c -1.1,0 -2,0.9 -2,2 0,1.1 0.9,2 2,2 1.1,0 2,-0.9 2,-2 0,-1.1 -0.9,-2 -2,-2 z" />
    <path
       style="fill:#999999;stroke-width:7.633"
       d="m 779.98224,462.23037 c 0,0 -36.12466,32.88676 -39.16562,32.88676 -3.04096,0 -36.92272,-5.78964 -36.92272,-5.78964 L 583.42242,458.2566 c 0,0 -123.01494,-10.83097 -125.5895,-10.064 -2.57456,0.76698 -77.17247,2.99536 -87.88529,3.52603 -10.71281,0.53066 -86.73067,10.64026 -89.77578,11.70159 -3.04511,1.06133 -64.02813,15.10324 -77.25332,17.35028 -13.22518,2.24704 -42.15476,15.6422 -42.15476,12.78987 0,-2.85232 -1.01158,-41.42923 -1.01158,-41.42923 0,0 -5.68185,-60.22434 -0.71308,-61.01827 4.96877,-0.79392 49.12596,-19.9124 53.21375,-20.44306 4.08778,-0.53067 66.78511,-12.66135 69.82814,-13.19202 3.04304,-0.53067 112.05491,-14.38119 116.88298,-13.61078 4.82807,0.77041 106.807,3.99461 108.30806,4.34554 1.50106,0.35093 101.18247,10.52525 104.41763,11.57805 3.23516,1.05279 66.72113,19.53435 66.72113,19.53435 l 15.34646,7.74246 41.66369,19.0669 176.93327,-1.87804 17.145,25.00123 10.90222,34.42844 -4.51415,296.83582 c 0,0 -7.42716,33.66215 -9.08313,34.71494 -1.65596,1.0528 -17.37118,18.47608 -19.99907,19.87981 -2.62788,1.40373 -148.45149,4.33457 -150.60232,4.33457 -2.15084,0 -12.74189,2.425 -12.74189,2.425 l -1.6258,20.00592 -31.74299,-4.18104 c 0,0 -146.72287,-9.18731 -152.53383,-9.06394 -5.81095,0.12338 -174.20668,0.80605 -176.04085,0.80605 -1.83418,0 -116.30823,7.30928 -116.30823,7.30928 l -93.51678,8.6239 -4.62382,-96.26118 47.25532,-8.89944 91.90879,-9.38061 138.25936,-7.89462 115.60499,3.03503 c 0,0 91.99379,10.82957 94.24881,10.53073 2.25501,-0.29885 53.87917,7.27226 53.87917,7.27226 l 109.05105,31.80878 c 0,0 63.12817,-41.47452 64.78688,-41.12358 1.65871,0.35093 -3.9055,-126.20701 -1.53259,-126.90888 2.37291,-0.70186 -2.77319,-135.21337 -2.77319,-135.21337 0,0 -47.94759,-16.45546 -52.39868,-16.45546 -4.45109,0 -45.37625,6.34446 -45.37625,6.34446 z"
       id="path3" />
    <path
       id="path2"
       style="fill:#ff9955;stroke-width:7.633"
       d="M 450.91418 167.20588 C 422.70526 167.19245 395.6832 167.41161 393.99035 167.82307 C 390.60466 168.646 241.84822 194.57335 238.65051 195.55549 C 235.4528 196.53763 170.48043 225.39082 165.10168 229.11604 C 159.72293 232.84126 166.20129 384.2801 166.20129 384.2801 C 166.20129 384.2801 164.6712 384.93902 168.49426 383.04572 C 172.31732 381.15241 177.17004 377.07697 177.17004 377.07697 L 203.07434 373.13557 L 232.86535 368.56525 L 282.98449 357.85822 L 340.96106 353.44611 L 403.78528 346.62189 C 403.78528 346.62189 490.45514 347.27243 495.28528 347.70979 C 500.1154 348.14715 546.80977 350.55354 549.44543 350.55354 C 552.0811 350.55354 601.60519 359.80465 605.7716 360.29572 C 609.93802 360.78679 659.86731 369.11994 659.86731 369.11994 L 695.36145 387.94416 C 695.36145 387.94416 724.33996 390.45507 724.33996 388.36994 C 724.33996 386.28481 722.29895 227.83674 722.29895 227.83674 C 722.29895 227.83674 664.07675 198.28684 648.74426 194.03986 C 633.41177 189.79288 527.82464 169.0152 514.95324 167.98127 C 508.51755 167.4643 479.1231 167.21931 450.91418 167.20588 z M 492.16809 445.72932 L 386.81067 447.73908 L 241.32824 472.87775 C 241.32824 472.87775 174.93785 493.1551 170.33215 493.1551 L 177.90246 747.94025 L 263.00207 737.07111 L 361.49426 727.11604 C 361.49426 727.11604 485.98443 722.02891 493.60559 723.03791 C 501.22676 724.0469 619.96887 729.88947 619.96887 729.88947 C 619.96887 729.88947 689.63111 740.31083 695.43762 742.0008 C 701.24413 743.69077 723.98478 752.16555 724.96692 749.30354 C 725.94906 746.44152 722.35559 506.16877 722.35559 506.16877 L 716.59973 492.41877 L 640.55285 471.3133 L 573.89856 455.72932 L 492.16809 445.72932 z M 557.26184 830.29768 C 554.09291 830.29768 447.4546 832.51429 436.78918 830.78596 C 426.12376 829.05762 353.59973 834.6551 353.59973 834.6551 L 174.07824 845.33088 L 172.62512 946.58869 L 200.54309 1019.8758 C 200.54309 1019.8758 707.74679 1020.9618 712.61145 1020.4324 C 717.47611 1019.9029 750.59387 998.35432 750.59387 998.35432 L 734.83996 849.54768 L 696.3341 844.70783 C 696.3341 844.70783 631.31562 835.2523 623.96301 833.72346 C 616.6104 832.19462 560.43077 830.29768 557.26184 830.29768 z " />
    <path
       id="path1"
       style="fill:#000000;stroke-width:1.33333"
       d="M 532.66613 31.487129 C 502.30851 31.798965 461.74369 36.290765 454.41418 40.153145 C 453.17546 40.805902 448.37611 42.17851 443.74817 43.201973 C 439.12022 44.225435 432.3328 46.274488 428.66613 47.75666 C 424.99947 49.23883 415.09946 52.682132 406.66613 55.407051 C 392.70968 59.916566 389.63491 60.419205 372.41613 61.01252 C 361.20795 61.398724 348.98228 61.02071 342.41613 60.084785 C 329.806 58.287362 307.99607 53.484385 306.00012 52.065254 C 303.93401 50.596235 288.63123 45.332832 286.4259 45.332832 C 284.31634 45.332832 270.87071 40.154139 261.7677 35.834785 C 251.11474 30.779988 229.24575 30.532935 216.56067 35.32502 C 213.56874 36.455295 209.40593 39.169291 207.31067 41.35627 C 205.21542 43.543251 202.76926 45.332832 201.87512 45.332832 C 198.57719 45.332832 183.07943 64.081691 174.74035 78.159004 C 170.01384 86.137922 164.27473 95.36682 161.9884 98.666817 C 159.70208 101.96681 155.88631 108.32284 153.50793 112.79182 C 143.23419 132.09627 119.7186 159.40529 97.068479 178.33674 C 75.055048 196.73601 68.781218 206.85879 68.730588 224.0633 C 68.704954 232.77342 69.289627 235.32089 73.070432 243.0008 C 83.526428 264.23994 116.38414 286.91794 142.79309 291.12385 L 151.5841 292.52424 L 152.4591 328.47932 C 153.7565 381.81935 153.61023 395.68546 151.74426 396.30744 C 150.5221 396.71483 150.67324 408.05787 152.40051 445.41877 C 153.89494 477.74346 155.6104 571.25253 157.52551 724.86213 L 160.40246 955.72541 L 155.6466 961.5301 C 138.70117 982.20976 139.33254 1001.4177 157.63098 1021.9481 L 164.21301 1029.3328 L 460.65051 1029.3328 L 757.08606 1029.3328 L 763.10363 1022.6414 C 772.17676 1012.5499 775.3262 1005.172 775.3302 994.0008 C 775.33419 982.62677 771.42876 973.71405 761.60168 962.66682 L 755.07824 955.33283 L 754.18567 917.33283 C 753.69462 896.43286 752.91146 868.40091 752.44348 855.03986 L 751.59192 830.74689 L 831.46301 830.37385 L 911.3341 830.0008 L 918.5216 826.21564 C 933.07844 818.55165 944.70339 801.926 948.70324 783.04963 C 951.59007 769.42563 951.55777 454.4243 948.66809 440.784 C 945.57345 426.17631 939.90803 415.62701 929.67785 405.42854 C 915.29518 391.09047 917.8628 391.54771 848.53528 390.97736 L 789.73645 390.49494 L 786.03528 381.58088 C 776.20621 357.91021 780.89042 341.80105 807.18176 308.87775 C 821.87738 290.47521 827.22651 282.23959 831.99231 270.68244 C 843.22442 243.44429 842.65603 213.22208 830.44348 188.41486 C 827.99158 183.43436 822.32379 175.61981 817.13098 170.05939 C 805.82716 157.9554 794.42233 151.64746 777.04504 147.89143 C 764.917 145.27001 745.41029 137.30743 742.48449 133.78205 C 741.6715 132.80244 740.18064 132.0008 739.17199 132.0008 C 737.22109 132.0008 714.70658 118.51532 692.66613 104.14533 C 685.33281 99.364135 677.32564 94.34242 674.87121 92.987129 C 672.41681 91.631839 665.8155 87.648174 660.20324 84.135567 C 654.59101 80.622961 646.10077 75.644375 641.3341 73.071114 C 636.56745 70.497852 629.06613 66.156529 624.66613 63.422676 C 594.55201 44.711849 555.77056 31.2498 532.66613 31.487129 z M 237.5509 61.608223 C 244.33767 61.613234 252.66648 64.187057 264.66613 69.330879 C 296.98986 83.186914 327.57809 90.433635 358.77746 91.627754 C 385.63401 92.655657 395.02898 91.02445 430.00012 79.260567 C 446.13344 73.833506 466.53411 67.758792 475.3341 65.760567 C 489.88093 62.4574 493.7554 62.126314 518.00012 62.133614 C 543.29367 62.141226 545.28046 62.331584 556.59192 65.807442 C 584.81845 74.481068 612.23371 89.356054 687.3341 136.74885 C 726.02251 161.16352 747.7191 172.16479 764.89465 176.07697 C 784.66455 180.58008 792.22051 185.20532 801.1759 198.28205 C 810.05089 211.24138 812.43939 233.81619 806.78918 251.33283 C 802.667 264.11231 798.31216 271.25045 782.79113 290.66682 C 760.57995 318.45241 752.16232 336.13729 751.06067 357.33283 C 750.51187 367.8916 751.40409 373.50729 756.11535 389.16682 C 756.96563 391.99299 753.68134 392.47342 752.21692 389.73713 C 745.79746 377.74224 743.54679 338.42861 747.19934 302.0965 C 751.20913 262.21072 749.47391 240.21469 740.94738 222.79963 C 735.86332 212.41568 726.22337 201.61012 715.61926 194.409 C 705.05351 187.23393 681.23858 175.97124 664.00012 169.99689 C 562.34187 134.76515 379.20625 135.93141 251.41028 172.6258 C 221.78088 181.13338 189.95695 194.47138 174.94153 204.67463 C 172.24967 206.50379 169.3765 208.0008 168.55676 208.0008 C 167.73702 208.0008 164.52529 209.84175 161.41809 212.0926 C 152.25743 218.72854 146.77718 234.73135 146.69348 255.09064 C 146.66254 262.61769 146.75766 262.61559 131.18176 255.23518 C 112.64884 246.45362 98.657924 232.96162 98.671994 223.88361 C 98.680342 218.49708 103.20578 212.79103 115.54504 202.61018 C 145.33551 178.03072 168.48912 149.54372 191.35949 109.33283 C 201.48619 91.527986 213.13309 75.070641 219.69153 69.297676 C 225.52026 64.167018 230.76413 61.603212 237.5509 61.608223 z M 405.3341 185.01643 L 452.59387 185.54572 C 478.58742 185.83776 500.33809 186.55987 500.92785 187.14924 C 501.93497 188.15571 504.99407 286.25936 505.22668 325.0008 L 505.3341 342.66682 L 501.9591 342.66682 C 500.10275 342.66682 498.34984 341.91747 498.06457 341.0008 C 497.77931 340.08413 496.29646 310.23344 494.76965 274.66682 C 490.64591 178.60598 490.62262 178.53551 487.17981 252.0008 C 485.54741 286.8341 484.11612 318.63348 484.00012 322.66682 C 483.88413 326.70014 483.56488 329.40015 483.28918 328.66682 C 483.0135 327.93348 481.20817 298.8341 479.27942 264.0008 C 477.35065 229.16751 475.52514 200.41574 475.22082 200.11018 C 474.91649 199.80463 474.68184 201.60463 474.69934 204.11018 C 474.79284 217.49788 470.12614 323.483 469.40637 324.32111 C 468.9399 324.86425 466.86528 300.26488 464.79699 269.6551 C 461.2868 217.70562 460.03443 204.49212 459.97473 218.77814 C 459.96118 222.01703 459.07302 246.5662 458.00012 273.33283 C 456.92721 300.09948 456.03911 324.34928 456.02551 327.2215 C 455.96779 339.45578 454.6915 328.29775 450.47473 278.66682 C 445.35647 218.42521 445.24772 218.6129 443.32629 291.0008 C 442.76666 312.08411 441.91025 329.33283 441.42395 329.33283 C 440.93764 329.33283 438.46964 309.38411 435.93762 285.0008 C 430.98524 237.30964 429.90443 235.80095 429.49426 276.0008 C 429.30409 294.63859 427.7606 334.88194 427.25598 334.3465 C 427.0765 334.15605 424.61907 316.30013 421.79699 294.66682 C 415.79175 248.63202 414.97026 249.3541 414.78332 300.83283 C 414.65924 335.00128 414.09344 341.33283 411.16613 341.33283 C 410.15781 341.33283 409.29457 341.18413 409.24817 341.0008 C 408.97839 339.93392 405.4494 209.06893 405.3966 198.17463 L 405.3341 185.01643 z M 394.41223 186.47541 L 395.16613 197.57111 C 396.01958 210.11066 398.80028 323.39681 398.53137 334.66682 C 398.43513 338.70014 398.13309 341.1008 397.85949 340.0008 C 397.58589 338.9008 394.64237 305.60076 391.31848 266.0008 C 387.99457 226.40084 385.03519 193.40015 384.74231 192.66682 C 384.44943 191.93349 384.16349 220.49513 384.10559 256.13752 C 383.95212 350.61903 383.37718 351.69178 375.96887 271.33283 L 369.82238 204.66682 L 368.74621 273.72346 C 368.15367 311.70441 367.50524 342.60379 367.30481 342.38947 C 367.10438 342.17515 364.32849 315.30011 361.13684 282.66682 C 354.26717 212.42778 353.72168 213.03124 353.32824 291.33283 C 353.16235 324.3475 352.61739 343.14291 351.8966 340.66682 C 351.25617 338.46682 348.255 312.96744 345.22668 284.0008 C 342.19837 255.03417 339.48321 231.0837 339.19348 230.77814 C 338.90373 230.4726 338.58745 246.97197 338.49035 267.44416 C 338.32608 302.0923 336.85054 350.22093 336.18371 342.66682 C 336.02189 340.83348 333.32675 318.03411 330.19543 292.0008 L 324.50207 244.66682 L 323.58801 272.0008 C 323.08522 287.03412 322.63446 310.13285 322.58606 323.33283 C 322.53765 336.53282 322.02901 346.13348 321.4552 344.66682 C 320.8814 343.20015 318.1044 324.14948 315.28528 302.33283 C 312.46615 280.51619 309.6741 262.66682 309.0802 262.66682 C 308.48629 262.66682 307.9252 278.11749 307.8341 297.0008 C 307.743 315.88411 307.293 335.53348 306.8341 340.66682 C 306.05395 349.39347 305.84035 348.31078 303.55481 324.0008 C 300.67894 293.4119 297.63266 200.48524 299.44738 198.7176 C 301.61364 196.60753 353.48399 189.53143 382.87317 187.33674 L 394.41223 186.47541 z M 512.00012 187.68635 L 522.3341 188.56916 C 545.29692 190.52952 595.79854 198.07604 597.52942 199.80549 C 598.00378 200.27948 599.05261 227.9662 599.85949 261.33283 C 600.6664 294.69946 601.68033 329.05016 602.1134 337.66682 L 602.90051 353.33283 L 598.93762 353.33283 C 595.14321 353.33283 594.94114 353.03447 594.20324 346.33283 C 593.77932 342.48284 592.08827 310.10492 590.44543 274.38166 C 588.80258 238.65841 587.25211 209.63748 587.00012 209.88947 C 586.61482 210.27477 580.35888 329.75018 579.87317 346.0008 L 579.71496 351.33283 L 578.62707 346.0008 C 578.02944 343.06747 576.58649 318.46615 575.42004 291.33283 C 572.13406 214.897 572.03506 214.76447 567.84778 281.33283 C 565.84121 313.2328 564.15423 341.38392 564.09973 343.88947 C 564.04516 346.39502 563.60955 348.0536 563.13293 347.57697 C 562.41921 346.86327 557.98793 266.01364 557.23645 240.0008 C 556.88525 227.84363 556.22 234.31442 551.96692 291.27814 C 549.72435 321.31414 547.68707 346.09118 547.43957 346.33869 C 546.43962 347.33863 545.34142 330.5946 543.80871 290.96955 C 542.92163 268.03575 541.802 249.73442 541.32043 250.30158 C 540.83887 250.86874 538.81766 269.63415 536.82824 292.0008 C 532.72362 338.14786 531.89706 345.67507 531.03137 344.80939 C 530.69381 344.47184 529.57255 324.85036 528.53918 301.20588 C 527.5058 277.56141 526.49675 258.05213 526.29895 257.85432 C 526.10113 257.65652 523.89357 275.44983 521.3927 297.39338 C 518.89182 319.33692 516.58878 337.03284 516.27356 336.7176 C 515.74277 336.18681 512.15459 217.44627 512.04699 196.8426 L 512.00012 187.68635 z M 288.04504 200.47736 C 288.2243 201.23556 291.93776 335.83299 291.96496 342.55549 C 291.98399 347.26103 291.6489 350.76091 291.22082 350.33283 C 290.79272 349.90474 287.79609 321.15493 284.56067 286.44416 C 281.32524 251.7334 278.44503 222.43283 278.16028 221.33283 C 277.87553 220.23283 277.57129 236.43285 277.48449 257.33283 C 277.39763 278.2328 276.90875 308.53349 276.39856 324.66682 L 275.47082 354.0008 L 269.3341 294.0008 L 263.19543 234.0008 L 262.2677 269.33283 C 261.75722 288.76614 261.27649 316.36683 261.20129 330.66682 C 261.11617 346.85846 260.66574 354.907 260.00598 352.0008 C 259.42329 349.43413 256.64967 325.78163 253.84192 299.44025 C 250.88855 271.73286 248.35595 252.90553 247.8341 254.77229 C 247.33797 256.54701 246.82876 277.80083 246.70129 302.0008 C 246.36124 366.56643 245.74134 367.09129 238.83801 308.66682 C 235.63198 281.5335 232.78134 259.0837 232.50403 258.77814 C 232.22673 258.4726 231.9238 271.07262 231.8302 286.77814 C 231.73657 302.48369 231.28657 326.43414 230.8302 340.0008 L 230.00012 364.66682 L 224.00012 319.33283 L 218.00012 274.0008 L 217.1759 289.33283 C 216.72238 297.76616 216.17595 314.26748 215.96301 326.0008 L 215.57629 347.33283 L 214.63098 322.66682 C 214.11088 309.10016 213.24732 280.87332 212.71106 259.94025 L 211.73449 221.87971 L 230.86731 215.64924 C 241.39011 212.22246 253.30078 208.51792 257.3341 207.41682 C 264.87216 205.35892 287.96544 200.1405 288.04504 200.47736 z M 608.84387 202.4383 C 609.5402 201.23546 645.33428 210.64663 664.19153 216.99104 L 679.3341 222.08674 L 680.15832 242.70979 C 681.44447 274.93378 681.4506 309.1039 680.17004 309.89533 C 679.52992 310.29094 678.51565 301.47644 677.91613 290.30744 C 677.31663 279.13845 676.64405 271.20015 676.42199 272.66682 C 676.19992 274.13348 674.52063 294.47555 672.69153 317.87189 C 669.5924 357.51313 668.00012 370.32414 668.00012 355.60236 C 668.00012 347.35857 663.95908 272.84843 663.48645 272.3758 C 663.2824 272.17175 661.41735 291.50695 659.34192 315.3426 C 657.2665 339.17825 655.36795 358.478 655.12121 358.23127 C 654.87448 357.98455 653.78958 339.00004 652.71106 316.04377 C 651.63254 293.08749 650.55989 274.11526 650.32824 273.88361 C 650.09659 273.65196 648.18316 290.6837 646.07434 311.73127 C 643.96551 332.77885 641.82798 351.4995 641.32434 353.33283 C 640.82069 355.16617 639.94546 339.94957 639.38098 319.51643 C 638.8165 299.08327 637.95456 280.86667 637.46496 279.03596 C 636.93139 277.04086 634.79652 291.12199 632.13684 314.18635 C 629.69633 335.35021 627.5621 352.82177 627.3927 353.01252 C 626.77798 353.70466 625.3341 312.44431 625.3341 294.1883 C 625.3341 283.57098 624.83374 276.01486 624.17981 276.73322 C 623.54561 277.42989 620.81627 295.07997 618.1134 315.95588 C 615.41055 336.8318 612.92934 354.1829 612.59973 354.51252 C 612.2701 354.84214 611.97172 349.16169 611.93762 341.88947 C 611.90347 334.61726 611.07629 300.46744 610.09973 266.0008 C 609.12317 231.53418 608.55871 202.93089 608.84387 202.4383 z M 200.66613 226.86604 L 201.76379 230.43244 C 202.97389 234.36665 201.60891 339.4641 200.07238 360.66682 C 199.54096 368.00014 198.97119 372.50014 198.80676 370.66682 C 197.57368 356.91779 189.57389 286.13843 189.31262 286.66682 C 189.13132 287.03348 187.97987 306.8335 186.75403 330.66682 C 185.33646 358.22792 184.20506 371.81696 183.64465 368.0008 C 183.16002 364.7008 182.52529 333.57397 182.23449 298.83088 L 181.7052 235.66096 L 191.18567 231.26447 L 200.66613 226.86604 z M 689.96301 226.97541 C 690.25876 226.63142 709.52732 234.53348 710.45129 235.37775 C 710.6992 235.60428 709.59933 237.55147 708.00793 239.70393 L 705.11535 243.61799 L 706.53332 294.80939 C 707.31323 322.96455 708.31424 355.14951 708.75793 366.33283 C 709.51804 385.49137 709.42255 386.66055 707.11535 386.56135 C 703.74837 386.41661 697.3341 383.98328 697.3341 382.85041 C 697.3341 382.33991 696.11834 363.93815 694.63293 341.95979 C 692.29511 307.36936 689.07178 228.01198 689.96301 226.97541 z M 424.96692 351.0008 C 436.89271 350.83805 448.82149 350.88779 460.66613 351.16096 C 543.12953 353.06278 607.69354 362.20608 665.75793 380.20588 C 672.95773 382.43781 678.5867 384.52361 678.2677 384.8426 C 677.94871 385.16158 666.35736 383.62327 652.50988 381.42268 C 621.33116 376.46786 596.37679 373.68326 574.66613 372.73908 L 558.00012 372.01447 L 578.66613 375.25861 C 606.73769 379.66462 634.31611 385.43124 664.62512 393.23127 C 724.47557 408.63381 743.35358 415.40517 700.6134 406.14143 C 650.69546 395.32195 602.41415 388.5557 566.66613 387.36604 L 547.3341 386.7215 L 566.00012 389.25275 C 592.69917 392.87415 623.93298 398.95455 652.18176 406.02814 C 681.7343 413.42821 717.52124 423.79322 719.26574 425.45783 C 721.12578 427.23267 720.58964 427.13824 696.29699 421.39729 C 649.95248 410.44495 582.3096 401.1357 551.66809 401.49299 L 538.00012 401.65119 L 557.3341 403.97346 C 584.30235 407.21057 613.73126 412.57841 642.66613 419.53791 C 668.11695 425.6594 716.00012 439.83912 716.00012 441.25471 C 716.00012 441.695 706.84945 439.79602 695.66613 437.034 C 643.44457 424.1365 591.99503 417.03137 539.3341 415.44807 L 516.66613 414.76643 L 534.66613 416.63166 C 587.22613 422.07805 631.86995 430.90884 680.66613 445.50861 C 706.10658 453.12038 713.3341 455.75966 713.3341 457.44416 C 713.3341 458.07972 711.77131 458.00622 709.86145 457.2801 C 704.35348 455.18598 666.03268 445.82064 650.66613 442.8133 C 608.28783 434.51956 554.28721 429.08284 518.68957 429.52424 L 503.3341 429.71369 L 518.66613 430.80549 C 576.37537 434.91272 631.04762 445.67809 688.3341 464.21564 C 713.13298 472.24042 713.3341 472.33699 713.3341 476.15314 C 713.3341 478.26905 713.18346 479.99907 713.00012 479.99885 C 712.81679 479.99863 706.86531 477.92567 699.77551 475.39143 C 658.64816 460.6905 600.51442 448.95254 541.16028 443.36604 C 416.57779 431.64016 269.04117 445.14401 187.98449 475.69025 C 180.2934 478.58864 171.75012 481.95217 169.00012 483.16486 C 164.00812 485.36645 164.00012 485.36501 164.00012 482.20588 C 164.00012 479.33386 166.03791 478.28455 186.09973 470.82893 C 232.89878 453.43689 277.04483 442.33113 319.68176 437.22346 C 327.20622 436.32206 333.13804 435.36137 332.86535 435.08869 C 332.03029 434.25364 291.00637 437.23895 273.3341 439.42072 C 251.90101 442.0668 216.58165 449.20481 192.00012 455.85822 C 181.36679 458.73632 172.50256 460.92918 172.3009 460.73322 C 171.6694 460.11955 197.20533 450.6026 215.89856 444.48518 C 256.68881 431.13647 297.65166 422.37678 338.66613 418.23127 C 350.29272 417.05612 325.35956 417.47704 309.26574 418.72736 C 271.32558 421.67493 226.48551 429.76022 191.39856 439.98127 C 183.50718 442.28007 176.79931 443.90937 176.49231 443.60236 C 175.69774 442.80779 198.8464 434.04958 220.00012 427.14143 C 259.65108 414.19266 293.59252 406.89114 342.00012 400.89533 C 344.20012 400.62283 340.83356 400.30989 334.51965 400.20002 C 300.69107 399.61133 235.88975 410.60129 187.35363 425.159 C 180.03158 427.35515 173.86051 428.97253 173.64074 428.75275 C 173.01575 428.12778 208.25767 414.93592 226.00012 409.15314 C 256.984 399.05461 301.73881 389.04321 335.0802 384.75471 L 348.66613 383.00861 L 339.3341 382.8426 C 322.31628 382.5396 283.16192 386.85512 256.66613 391.95588 C 233.81293 396.35539 208.6815 402.68675 178.66613 411.60627 C 171.66276 413.68744 183.2112 408.66662 199.3341 402.61994 C 249.75481 383.71036 304.9895 370.62057 356.00012 365.49299 L 367.3341 364.35432 L 353.3341 364.20393 C 309.9582 363.73663 237.68298 376.68994 184.48059 394.4676 C 173.58277 398.10912 164.47964 400.90785 164.25207 400.68635 C 163.2814 399.7416 192.49056 386.46617 205.3341 382.01447 C 258.18104 363.69726 341.48633 352.14009 424.96692 351.0008 z M 349.01574 399.05744 C 347.3572 399.37636 348.40078 399.64811 351.3341 399.66291 C 354.26735 399.67771 355.62452 399.41851 354.34973 399.08479 C 353.07495 398.75108 350.67428 398.73852 349.01574 399.05744 z M 530.41613 400.42268 C 529.3525 400.84831 529.66952 401.16336 531.22278 401.22736 C 532.62832 401.28525 533.41584 400.97119 532.97278 400.52814 C 532.52973 400.08515 531.37863 400.03752 530.41613 400.42268 z M 879.69934 415.784 C 884.53173 415.83667 887.77368 415.98927 889.58606 416.23713 C 910.81574 419.14048 925.64198 435.21678 929.3302 459.33283 C 930.29662 465.65148 930.63554 515.17908 930.37903 612.66682 L 930.00012 756.66682 L 926.34778 767.4383 C 919.97542 786.23084 909.94334 798.88034 896.07434 805.61213 C 888.94895 809.07069 877.24884 809.50836 832.00012 808.00666 C 815.50014 807.45906 794.50076 806.86927 785.3341 806.69611 C 753.83944 806.10115 777.28885 804.21266 832.87121 802.86799 C 881.40097 801.69395 886.94893 801.32992 892.20324 798.97346 C 900.07984 795.44098 908.71472 786.3154 913.30871 776.66682 C 921.45736 759.55254 921.33552 762.14981 921.31262 605.05549 C 921.29598 490.78455 920.93537 460.48434 919.51965 454.46955 C 915.87863 439.00043 906.49208 428.56021 892.75207 424.69807 C 887.76428 423.29607 869.9988 422.42967 824.75403 421.37775 C 791.069 420.5946 763.29655 419.74061 763.03723 419.48127 C 762.77791 419.22195 774.4383 418.58428 788.94934 418.0633 C 836.39293 416.35998 865.20216 415.62599 879.69934 415.784 z M 858.37707 432.34846 C 866.23664 432.42576 869.55001 432.92579 873.34973 433.89924 C 883.28114 436.44355 888.96341 439.70931 894.56457 446.08869 C 900.33365 452.65929 903.9021 460.21767 906.07629 470.47541 C 908.43334 481.59597 908.66362 564.82222 906.57043 648.72346 C 905.78451 680.22552 904.72765 715.30017 904.22082 726.66682 C 903.35638 746.05374 903.24288 746.71359 902.38488 737.33283 C 901.15657 723.90325 898.7255 623.16221 897.58996 538.63557 L 896.66613 469.9383 L 892.29113 461.05354 C 887.2201 450.75566 880.4084 444.95332 870.87903 442.8133 C 867.46249 442.04605 844.26741 440.79728 819.3341 440.03986 C 794.4008 439.28246 767.40077 438.22942 759.3341 437.70002 L 744.66613 436.73908 L 756.00012 435.83674 C 762.23344 435.34052 789.28959 434.21531 816.12512 433.33674 C 838.11134 432.61692 850.5175 432.27115 858.37707 432.34846 z M 490.05481 459.33283 L 493.09387 484.66682 C 494.7651 498.60013 497.18747 519.00081 498.47863 530.0008 L 500.82629 550.0008 L 501.72668 530.0008 C 502.22125 519.00081 503.01689 499.05013 503.49621 485.66682 C 504.30313 463.13598 504.55303 461.33283 506.85168 461.33283 C 509.12107 461.33283 509.33993 462.62084 509.41223 476.33283 C 509.4557 484.58282 510.86046 542.33355 512.53332 604.66682 C 514.20619 667.00008 515.51954 718.09063 515.45324 718.20197 C 515.38691 718.31326 493.58353 718.61457 467.00012 718.86994 C 419.4033 719.32717 418.66537 719.29284 418.65637 716.66682 C 418.65124 715.20016 417.154 657.04807 415.32824 587.44025 C 413.50247 517.83243 412.24125 460.64834 412.52551 460.36408 C 413.29242 459.59718 414.25673 473.09303 419.3634 556.0008 C 421.91548 597.43409 424.16105 633.13283 424.35363 635.33283 C 424.67606 639.0159 425.15389 619.47444 427.53528 504.9715 C 428.00459 482.40605 428.5323 464.10668 428.7091 464.30549 C 428.88589 464.50431 431.3275 498.38776 434.13488 539.60236 C 436.94226 580.81694 439.4796 614.29867 439.7716 614.00666 C 440.31571 613.46255 443.86289 503.7883 443.95129 484.77814 C 443.97829 478.9726 444.2704 474.49179 444.59973 474.82111 C 444.92906 475.15044 447.33649 503.29962 449.95129 537.3758 C 452.56609 571.452 454.88167 600.23283 455.09582 601.33283 C 455.30997 602.43283 455.90711 582.93412 456.42395 558.0008 C 457.49191 506.48127 458.90226 459.77015 459.37317 460.30549 C 459.54793 460.50415 462.01082 487.9662 464.84582 521.33283 C 470.83155 591.7815 471.05462 591.44704 472.67785 509.61018 C 473.22031 482.26241 473.93804 460.15944 474.2716 460.49299 C 474.60514 460.82655 477.22083 484.37259 480.0841 512.81721 C 482.94738 541.26185 485.50898 565.1648 485.77746 565.93439 C 486.04593 566.70399 486.71618 547.82865 487.2677 523.98908 C 487.81922 500.14952 488.67182 475.8495 489.16223 469.98908 L 490.05481 459.33283 z M 399.2384 459.92072 C 399.49699 459.92436 399.7936 460.0008 400.13879 460.0008 C 402.44795 460.0008 402.66718 461.12643 402.66418 473.0008 C 402.66227 483.18705 406.25466 631.93898 408.31262 706.88557 L 408.66613 719.77229 L 392.00012 720.63361 C 382.83347 721.10711 366.93279 722.04183 356.66613 722.70979 C 346.39948 723.37774 332.15011 724.32908 325.00012 724.82502 C 314.33094 725.56504 311.99589 725.39344 311.98059 723.86408 C 311.97035 722.83918 310.78164 678.80075 309.33801 626.0008 C 306.79852 533.12087 306.01068 476.23206 307.28137 477.50275 C 307.61941 477.84078 310.0271 511.99062 312.63098 553.39143 C 315.23487 594.79223 317.53307 629.86617 317.7384 631.33283 C 317.94372 632.7995 318.54243 608.20012 319.07043 576.66682 C 320.1819 510.28847 321.59118 464.84245 322.41809 468.66682 C 322.73521 470.13349 325.20753 503.13418 327.91223 542.0008 L 332.8302 612.66682 L 333.73645 591.33283 C 334.23499 579.5995 335.03008 546.45012 335.50403 517.66682 C 335.97796 488.88352 336.75191 465.33283 337.22278 465.33283 C 337.69364 465.33283 340.07281 491.88286 342.50988 524.33283 C 344.94696 556.7828 347.36168 586.63349 347.87707 590.66682 C 348.42584 594.96141 349.20686 575.9002 349.76184 544.66682 C 350.85296 483.2619 351.99116 459.08611 353.40051 467.33283 C 353.90182 470.26616 356.34131 496.6675 358.82238 526.0008 L 363.3341 579.33283 L 364.25403 558.0008 C 364.75992 546.26748 365.57816 520.0168 366.07238 499.66682 C 366.56659 479.31684 367.40433 462.66682 367.93567 462.66682 C 368.46703 462.66682 370.89467 483.5175 373.3302 509.0008 C 375.76572 534.48412 378.18676 555.82586 378.7091 556.42854 C 379.23145 557.03121 380.10601 536.9439 380.65246 511.78986 C 381.60021 468.1635 382.51983 456.2301 384.3341 464.07697 C 384.74823 465.86813 387.0923 484.73416 389.54309 506.0008 L 394.00012 544.66682 L 394.98645 521.33283 C 397.43546 463.41257 397.42831 459.89524 399.2384 459.92072 z M 519.38488 461.61213 C 519.90742 462.13195 522.83895 502.33069 525.90051 550.94416 L 531.46692 639.33283 L 532.38879 600.66682 C 532.89546 579.40017 533.73908 539.80012 534.26379 512.66682 C 535.35748 456.11069 535.34075 456.03421 541.44543 546.24104 C 543.88621 582.30733 546.28656 611.56787 546.77746 611.26447 C 547.26837 610.96107 548.11371 580.55317 548.65637 543.69025 C 549.19904 506.82736 550.02796 474.29258 550.50012 471.39143 C 551.03172 468.12509 553.32004 491.98793 556.50793 534.05939 C 559.3394 571.42719 561.79801 602.16563 561.97278 602.36799 C 562.14757 602.57034 562.68078 584.57031 563.15637 562.36799 C 564.62113 493.98779 565.73087 465.66938 566.75207 470.66682 C 567.27657 473.23348 569.72083 499.03417 572.18176 528.0008 C 577.41954 589.6529 577.85847 588.94409 579.32629 516.52814 C 579.86731 489.8373 580.84051 468.0008 581.4884 468.0008 C 582.13628 468.0008 582.66613 468.69239 582.66613 469.53791 C 582.66613 473.06337 592.10163 564.77926 592.58996 566.0008 C 592.88311 566.73414 593.19673 560.73348 593.28723 552.66682 C 593.5989 524.88517 595.69517 471.86044 596.51379 471.04182 C 596.96491 470.5907 597.58338 470.4726 597.88879 470.77814 C 598.19422 471.0837 600.55846 489.93351 603.1427 512.66682 C 607.37738 549.91918 607.98153 559.85768 609.26965 613.33283 C 610.05573 645.96614 611.0804 684.21619 611.54699 698.33283 L 612.3966 724.0008 L 605.19738 723.79768 C 601.23841 723.68612 588.10011 722.84076 576.00012 721.92072 C 563.90013 721.00068 547.83081 720.19225 540.29113 720.12385 C 530.6197 720.0361 526.40984 719.50867 525.99621 718.33283 C 525.67375 717.41616 524.21414 668.66741 522.75207 610.0008 C 521.29001 551.3342 519.72007 493.73412 519.26379 482.0008 C 518.80746 470.26747 518.86236 461.09232 519.38488 461.61213 z M 815.3341 469.33283 C 832.8038 469.33283 834.62805 469.57437 840.93957 472.71955 C 853.2922 478.87511 863.82406 493.04232 870.14465 512.0008 C 872.40133 518.76966 872.62318 526.32284 873.0216 610.13166 C 873.49746 710.22972 873.34889 712.53208 865.3634 728.78986 C 859.74205 740.23444 852.04645 748.43553 842.41418 753.24885 C 834.44741 757.22993 833.76173 757.33283 815.3341 757.33283 C 796.9144 757.33283 796.21576 757.22835 788.2677 753.25666 C 774.2637 746.25879 764.31732 732.67606 759.03332 713.33283 C 756.87455 705.4302 756.66613 696.73259 756.66613 614.66682 C 756.66613 532.43219 756.87192 523.91969 759.04504 516.0008 C 764.65295 495.5654 776.00575 479.55793 789.74817 472.70979 C 796.03624 469.57631 797.87875 469.33283 815.3341 469.33283 z M 616.74035 476.57893 C 617.53592 477.33112 619.47927 505.71756 622.68371 560.0008 C 624.99973 599.23409 627.40229 632.53413 628.02356 634.0008 C 628.70888 635.61869 629.18751 628.23053 629.24231 615.2176 C 629.4509 565.639 631.27104 493.10661 632.13293 500.0008 C 632.63717 504.03414 634.76281 533.73417 636.85754 566.0008 C 641.2591 633.80105 641.5061 632.92405 643.33606 542.95197 C 643.89219 515.60858 644.57297 493.46037 644.84778 493.73518 C 645.1226 494.00999 647.15465 519.38276 649.36535 550.11799 C 653.18657 603.24409 654.36274 615.35126 654.53137 603.33283 C 654.98562 570.95567 658.10554 493.91032 658.79699 498.0008 C 659.29283 500.93414 661.09435 522.1102 662.79895 545.05939 C 664.50353 568.00859 666.28297 585.70926 666.75403 584.39338 C 667.22511 583.07748 668.39149 562.64353 669.34582 538.98518 C 670.30014 515.32682 671.3872 496.27656 671.76184 496.65119 C 672.47369 497.36305 678.52585 562.62536 678.61535 570.55549 C 678.74811 582.31278 679.89368 570.93475 681.8927 538.0008 C 684.21872 499.67919 685.11417 490.00353 686.23059 491.11994 C 686.82857 491.71792 693.17233 704.2517 693.29113 727.66682 C 693.34109 737.51356 695.2352 737.10103 670.66613 732.60236 C 661.49947 730.92393 647.57148 728.79996 639.71496 727.88361 C 631.85845 726.96728 624.67584 725.75141 623.75207 725.18049 C 622.46323 724.38395 621.38561 698.61095 619.12121 614.40314 C 616.59137 520.32342 615.71748 475.61182 616.74035 476.57893 z M 293.7052 477.24104 C 294.03602 477.58108 294.39436 479.64314 294.79113 483.33283 C 296.01268 494.69224 302.05814 725.05214 301.15832 725.95197 C 300.74894 726.36133 287.07926 728.20359 270.78137 730.04572 C 254.4835 731.88786 237.58964 733.88255 233.24035 734.47736 L 225.33215 735.55939 L 225.32238 731.44611 C 225.31624 729.18416 223.83124 673.06797 222.0216 606.74494 C 220.21199 540.42192 219.01623 485.87338 219.36535 485.52424 C 219.71449 485.17514 220.23647 485.13862 220.52551 485.44416 C 220.81456 485.74972 223.22957 521.40019 225.8927 564.66682 C 228.55583 607.93343 230.8953 644.53413 231.08996 646.0008 C 231.28462 647.46747 231.86998 627.96679 232.3927 602.66682 C 233.91582 528.94636 235.19211 481.79362 235.5841 484.66682 C 235.78418 486.13349 238.07099 519.13418 240.66613 558.0008 C 243.26129 596.86743 245.56511 629.56682 245.78723 630.66682 C 246.00936 631.76682 246.66487 606.86613 247.24426 575.33283 C 247.82363 543.79952 248.68063 509.30014 249.14856 498.66682 L 250.00012 479.33283 L 254.47082 540.0008 C 256.93002 573.36744 259.36613 603.96748 259.88488 608.0008 C 260.44092 612.32389 261.2732 592.07253 261.91028 558.66682 C 263.62526 468.74062 263.85405 467.96328 269.19738 534.0008 C 271.68952 564.80077 274.16089 590.49177 274.68957 591.0926 C 275.21825 591.69342 276.09839 568.91227 276.64465 540.4676 C 277.19092 512.02292 278.02463 486.0514 278.49621 482.75471 C 279.1029 478.51344 280.70916 491.56422 283.99035 527.38166 C 287.2782 563.27164 288.8767 576.25492 289.48645 572.0008 C 289.95945 568.7008 290.76333 546.79947 291.2716 523.33283 C 291.97818 490.70988 292.71274 476.2209 293.7052 477.24104 z M 207.53137 489.33283 C 208.8886 489.33283 209.33492 491.88142 209.34192 499.66682 C 209.34701 505.35014 210.51983 553.5002 211.94738 606.66682 C 213.37495 659.83342 214.72027 710.83414 214.93762 720.0008 L 215.3341 736.66682 L 208.00012 738.11018 C 203.96678 738.90451 197.91263 739.93063 194.54699 740.38947 L 188.42785 741.22346 L 187.54895 700.27814 C 186.5327 652.90282 186.7595 596.90625 187.90637 612.0008 C 189.32165 630.62817 190.46566 617.20793 191.3966 571.04963 C 191.90264 545.95975 192.71792 523.47294 193.20715 521.08088 C 193.80992 518.13364 195.09489 526.39279 197.19543 546.70002 C 201.72906 590.52917 202.04481 591.05997 203.09973 556.66682 C 204.82612 500.3822 205.55208 489.33283 207.53137 489.33283 z M 697.5509 495.33869 C 697.93494 494.95463 701.27541 495.89898 704.97473 497.43635 L 711.70129 500.23127 L 712.59973 539.11604 C 713.09488 560.50248 713.31111 614.62274 713.08215 659.38361 L 712.66613 740.76643 L 707.66613 739.58479 C 702.76628 738.42588 702.6665 738.27665 702.7052 732.20002 C 702.72689 728.78954 701.41973 674.25811 699.79895 611.01838 C 698.17816 547.77866 697.16685 495.72274 697.5509 495.33869 z M 473.3341 730.04572 C 559.26638 729.99912 573.55852 730.5773 624.00012 736.14924 C 649.99588 739.02083 683.52444 744.37056 668.66613 743.27619 C 649.49868 741.86444 584.03138 741.25058 576.66613 742.41291 L 568.66613 743.67463 L 581.49035 743.83674 C 605.87783 744.14595 665.66387 751.1935 701.81457 758.02033 C 707.57892 759.10889 712.52892 760.0008 712.81457 760.0008 C 713.10023 760.0008 713.3341 760.97795 713.3341 762.17268 C 713.3341 764.02835 712.21558 764.21899 705.66613 763.48127 C 675.03668 760.03117 645.40793 758.42779 604.00012 757.97932 C 574.39196 757.65866 558.66399 757.91264 562.00012 758.65705 C 564.93345 759.31158 571.8508 759.88038 577.37317 759.92268 C 605.37914 760.137 711.0438 774.51128 715.2052 778.67268 C 717.70899 781.17647 714.7417 781.53996 703.10949 780.1551 C 661.89108 775.24787 593.34246 772.01353 557.3341 773.27619 L 536.66613 774.0008 L 558.66613 775.06525 C 590.33312 776.59869 627.59437 780.60514 667.3341 786.7508 C 713.41558 793.87717 718.99954 794.98883 719.72668 797.17658 C 720.21231 798.63767 719.12986 798.84856 714.50403 798.19025 C 667.86515 791.55304 536.70222 784.96034 534.12903 789.12385 C 533.43679 790.24392 536.10303 790.66682 543.84192 790.66682 C 558.605 790.66682 598.27984 794.12015 629.3341 798.10822 C 671.05212 803.46577 727.04484 813.24277 729.3341 815.56916 C 731.12062 817.38464 730.90714 817.51976 727.3341 816.83479 C 720.05143 815.4386 677.05759 810.82373 652.00012 808.74885 C 610.44597 805.30798 579.49744 803.99277 544.66613 804.1883 C 514.9629 804.35505 513.00265 804.49365 526.66613 805.45197 C 587.76637 809.73742 610.96434 812.13025 655.84778 818.78205 C 680.89156 822.4936 729.31244 831.06973 735.00012 832.80158 C 736.28346 833.19235 737.3341 834.37209 737.3341 835.42268 C 737.3341 837.5386 733.95916 837.69824 726.66613 835.92658 C 709.656 831.79439 668.71077 826.44827 629.3341 823.21955 C 594.16514 820.33585 470.28596 819.15817 418.18371 821.21174 C 353.82113 823.74854 275.77082 828.8892 222.20324 834.11994 C 210.58157 835.25478 200.84227 835.95428 200.56067 835.67268 C 199.81861 834.93063 245.88627 826.03683 274.66613 821.36604 C 313.94834 814.99078 350.44991 810.79287 394.66613 807.56916 C 397.96613 807.32856 392.26678 807.02967 382.00012 806.90314 C 338.35655 806.36541 256.96898 813.27819 195.75598 822.72346 C 186.45497 824.15862 177.45496 825.29259 175.75598 825.24299 C 172.83002 825.15751 172.80822 825.0905 175.3341 823.95979 C 179.26397 822.20058 211.24184 815.52087 244.66613 809.47932 C 288.19458 801.61141 329.27131 796.13822 366.00012 793.30939 C 376.92794 792.46775 371.48895 792.30946 344.66613 792.69025 C 299.43396 793.33237 242.527 798.42123 190.00012 806.52033 C 181.20013 807.87719 173.74904 808.76435 173.44348 808.49299 C 172.03832 807.24504 175.93712 806.10514 196.2384 801.82502 C 247.77362 790.95988 310.9239 781.33405 346.66613 778.89533 L 362.00012 777.84846 L 354.00012 776.7176 C 337.90369 774.44277 251.62916 781.01054 196.09582 788.73713 C 175.29831 791.63078 170.29271 791.91773 172.11145 790.11604 C 172.41701 789.81334 184.36615 787.13668 198.66613 784.16682 C 252.56455 772.97304 295.04848 766.54774 336.00012 763.39729 L 358.00012 761.70393 L 334.00012 761.5301 C 296.34803 761.2575 244.74246 765.12883 193.49035 772.06916 C 171.38224 775.06294 172.00012 775.02035 172.00012 773.53596 C 172.00012 771.19703 248.75253 756.6252 285.3341 752.01838 C 297.43409 750.4946 313.93346 748.78911 322.00012 748.22932 L 336.66613 747.21174 L 324.66613 746.1883 C 304.99453 744.50994 251.05907 748.09818 196.43371 754.71955 C 171.71287 757.71608 170.66613 757.77143 170.66613 756.09455 C 170.66613 752.95436 238.57384 742.86458 296.66613 737.37385 C 363.76079 731.03221 386.4306 730.09282 473.3341 730.04572 z M 502.04895 839.54768 C 503.26419 840.62513 504.75056 855.13582 507.56262 890.66682 C 511.80918 944.32274 511.45502 945.03126 514.70129 876.33283 C 515.64558 856.34951 516.84858 840.0008 517.37317 840.0008 C 518.29401 840.0008 519.01807 856.73151 520.82238 919.66682 L 521.67199 949.33283 L 473.02942 949.33283 L 424.38684 949.33283 L 423.12512 896.33283 C 422.43146 867.18286 422.3017 842.80452 422.83801 842.159 C 423.37431 841.51348 424.13617 843.01414 424.52942 845.49299 C 425.30984 850.41239 432.03769 931.07262 432.01379 935.2215 C 432.0057 936.62705 432.24313 937.52705 432.54113 937.2215 C 432.83915 936.91594 434.0794 915.66745 435.29699 890.0008 C 437.42215 845.20306 437.94462 838.83396 439.37707 840.26643 C 439.73352 840.62288 441.84137 862.43032 444.06067 888.72736 C 447.83687 933.47278 449.34988 945.88039 449.32238 931.88947 C 449.30285 921.94848 453.55771 840.70349 454.12903 840.11213 C 454.42423 839.80648 454.92265 839.812 455.23645 840.1258 C 455.55025 840.43959 457.37748 860.18941 459.29504 884.01447 C 461.21262 907.83954 463.23155 929.13283 463.78332 931.33283 C 464.39467 933.77038 465.43013 921.01099 466.43176 898.66682 C 468.44412 853.77503 469.42562 840.0008 470.6134 840.0008 C 471.11545 840.0008 473.24708 861.1051 475.35168 886.89924 C 477.56549 914.03205 479.57973 932.43499 480.13098 930.56525 C 480.65504 928.78776 481.75454 911.43412 482.57434 892.0008 C 484.27864 851.60043 485.25396 839.33473 486.63879 840.89924 C 487.17458 841.50456 489.34909 863.60083 491.46887 890.0008 C 495.83433 944.36844 495.98179 944.24294 498.55481 884.0008 C 499.41616 863.83416 500.46458 845.23348 500.88488 842.66682 C 501.2689 840.32175 501.64387 839.18853 502.04895 839.54768 z M 549.35559 839.92854 C 550.55758 840.6246 551.5669 850.04628 554.73059 886.72932 C 556.89932 911.8758 558.85861 932.63661 559.08606 932.86408 C 559.31353 933.09153 560.55735 913.04027 561.84973 888.30549 C 564.13393 844.58771 564.64045 838.86185 566.08996 840.31135 C 566.47137 840.69278 568.49195 860.91422 570.5802 885.24689 C 572.66846 909.57957 574.62955 929.73963 574.93762 930.04768 C 575.24567 930.35575 576.62018 910.52202 577.99231 885.9715 C 579.36444 861.42098 580.90056 841.33283 581.40637 841.33283 C 582.80557 841.33283 583.57969 848.09499 586.86926 889.0008 C 588.53525 909.71745 590.27025 926.66682 590.72473 926.66682 C 591.1792 926.66682 592.63615 907.91745 593.96106 885.0008 C 595.28598 862.08416 596.8034 842.84644 597.3341 842.2508 C 598.71589 840.69995 599.43073 846.74608 602.86145 888.97736 C 604.54335 909.68117 606.30654 925.88118 606.77942 924.97736 C 607.25231 924.07352 608.7448 905.14905 610.09582 882.92463 C 611.51988 859.49876 612.98662 843.68838 613.5841 845.30354 C 614.60651 848.06737 617.0288 899.68745 617.66809 932.33479 L 618.00012 949.33479 L 575.14465 949.33479 L 532.28918 949.33283 L 531.51184 946.23713 C 529.31009 937.46468 530.91025 840.0008 533.25598 840.0008 C 533.74858 840.0008 535.85035 859.94952 537.92785 884.33283 C 540.00534 908.71614 542.10083 929.11586 542.5841 929.66486 C 543.06736 930.21386 544.55364 910.41384 545.88684 885.66486 C 547.22005 860.91589 548.54125 840.41574 548.82238 840.11018 C 549.00885 839.90751 549.18388 839.8291 549.35559 839.92854 z M 407.40832 842.15119 C 407.57673 841.9572 407.75287 841.97804 407.93762 842.18244 C 409.32421 843.7165 413.04216 893.07903 414.12512 924.33283 L 414.99035 949.33283 L 400.37903 949.33283 C 392.34204 949.33283 370.3679 949.72945 351.54895 950.21369 L 317.3341 951.09455 L 317.36926 937.87971 C 317.3891 930.61214 318.27378 908.76614 319.3341 889.33283 C 320.39442 869.89951 321.27709 852.34949 321.29699 850.33283 C 321.34907 845.03954 325.03635 845.57417 325.90637 851.0008 C 326.28847 853.38414 327.84073 871.53285 329.35559 891.33283 C 330.87043 911.13281 332.56325 929.13283 333.11731 931.33283 C 333.73191 933.77329 334.77275 920.7783 335.78528 898.0008 C 337.79538 852.78216 338.4824 845.33283 340.64856 845.33283 C 342.54204 845.33283 342.68647 846.55595 346.85754 898.27814 C 348.52573 918.96397 350.12868 935.64959 350.42004 935.35822 C 350.7114 935.06686 351.93514 914.54135 353.14074 889.74689 C 354.98643 851.78816 355.64644 844.66682 357.31067 844.66682 C 358.93864 844.66682 359.92517 852.07228 362.90637 886.66682 C 364.89701 909.76679 366.55692 930.71595 366.59582 933.2215 C 366.63477 935.72704 366.91301 937.52704 367.21301 937.2215 C 367.513 936.91594 368.77241 915.96679 370.01184 890.66682 C 372.0498 849.0663 373.00725 840.56262 375.38684 842.94221 C 375.80714 843.36251 377.91116 864.56547 380.06262 890.06135 C 382.21407 915.55721 384.16291 936.60892 384.39465 936.84064 C 384.62639 937.07237 385.55712 920.62781 386.46106 900.29768 C 388.71799 849.53849 389.32157 842.66682 391.52551 842.66682 C 392.65555 842.66682 393.37312 844.2928 393.43762 847.0008 C 393.49446 849.38414 395.18773 870.23286 397.20129 893.33283 C 401.36938 941.1498 401.75159 940.85118 404.00012 888.0008 C 405.38869 855.36328 406.22947 843.50914 407.40832 842.15119 z M 627.85168 846.66682 C 628.39172 846.66682 630.24312 863.31684 631.96692 883.66682 C 633.69073 904.0168 635.48911 922.1392 635.96301 923.9383 C 636.43692 925.73738 637.9264 909.83671 639.2716 888.60432 C 640.61682 867.37191 642.10875 849.24189 642.58801 848.31525 C 643.06725 847.38864 644.86609 862.3893 646.58606 881.64924 C 651.20694 933.39346 651.12247 933.27854 653.83801 891.33283 C 655.16734 870.79951 656.67007 852.25955 657.17785 850.13166 C 657.75671 847.70597 659.48056 861.12204 661.79699 886.09846 C 665.23507 923.16851 666.64011 933.65967 666.68371 922.55549 C 666.71408 914.81505 671.76015 849.12945 672.37121 848.51838 C 672.99298 847.89662 672.97867 847.76516 677.54504 895.33283 C 679.2346 912.93281 680.77258 926.13348 680.96301 924.66682 C 681.15345 923.20015 682.52204 905.84207 684.00403 886.09455 C 685.48599 866.34701 686.99172 849.89786 687.34973 849.53986 C 687.70773 849.18184 688.03876 850.33797 688.08606 852.11018 C 688.13344 853.8824 689.81566 871.23351 691.82434 890.66682 C 695.47595 925.99491 695.47764 925.99816 696.50793 914.87971 C 697.07468 908.76364 697.75465 903.97605 698.01965 904.24104 C 698.28464 904.50604 698.62152 915.21043 698.7677 928.02814 L 699.03332 951.33283 L 691.18371 951.42658 C 676.14339 951.60526 629.5443 949.99564 628.82434 949.27229 C 627.87035 948.31377 625.87589 871.82643 626.43567 857.66682 C 626.67484 851.61682 627.31163 846.66682 627.85168 846.66682 z M 290.11535 848.11018 C 290.41902 847.80466 290.95992 847.84927 291.31848 848.20783 C 291.67704 848.56639 293.6084 868.73528 295.60949 893.02814 C 297.61058 917.32102 299.40297 937.04131 299.59387 936.85041 C 299.78477 936.65952 300.86424 918.24043 301.99231 895.91877 C 303.12038 873.59712 304.20571 853.83414 304.40442 852.0008 C 304.60313 850.16747 305.201 862.76749 305.73254 880.0008 C 306.26407 897.23412 307.05722 920.11997 307.49426 930.85822 L 308.28723 950.38166 L 291.81067 951.16096 C 262.22252 952.5611 231.95538 953.00551 231.3634 952.04768 C 231.04462 951.53188 231.33652 939.75924 232.01379 925.88752 C 232.69106 912.01578 233.26508 896.51639 233.28918 891.44416 C 233.31329 886.37196 233.57135 882.4726 233.8634 882.77814 C 234.15544 883.0837 235.5027 895.6335 236.85559 910.66682 C 239.7575 942.91259 240.10239 941.62265 242.68957 888.94025 C 243.65451 869.29128 244.86539 852.95692 245.37903 852.63947 C 246.6112 851.87793 247.21111 856.90129 250.82434 898.24494 C 252.50243 917.44613 254.25291 932.92308 254.71496 932.63752 C 255.177 932.35196 256.34835 915.14039 257.31848 894.39143 C 258.28863 873.64246 259.51156 855.16616 260.03528 853.33283 L 260.98645 850.0008 L 261.74426 853.33283 C 262.16073 855.16616 264.06516 874.94367 265.97668 897.28205 C 267.88821 919.62044 269.61157 938.0556 269.80481 938.24885 C 269.99806 938.44209 270.90265 922.56396 271.81653 902.96564 C 274.6068 843.12828 275.84843 836.51533 278.43762 867.66682 C 282.67701 918.67256 284.53289 939.04394 284.83996 937.91291 C 285.02617 937.22699 286.16581 916.86679 287.37121 892.66682 C 288.57663 868.46684 289.81167 848.41574 290.11535 848.11018 z M 716.62707 854.92854 C 716.94444 854.61117 717.51384 855.77208 717.8927 857.50861 C 719.48324 864.79922 723.95317 918.07559 724.39465 935.0008 L 724.87317 953.33283 L 720.76965 953.13361 C 708.88678 952.55505 709.33568 953.03239 709.32238 940.91096 C 709.31601 934.90967 709.044 926.70014 708.71887 922.66682 C 708.24711 916.81446 708.34786 916.27657 709.22082 920.0008 C 709.82246 922.56747 710.39385 924.03789 710.49035 923.27033 C 710.58688 922.50276 711.87727 906.94183 713.35754 888.69025 C 714.83782 870.43867 716.30971 855.24592 716.62707 854.92854 z M 201.53918 863.35041 C 201.86111 863.02848 203.51295 877.59262 205.21106 895.71564 C 209.01093 936.27005 210.26594 943.90906 210.62512 928.66682 C 210.91324 916.43989 211.51124 916.7682 213.05871 930.0008 C 214.08961 938.81622 214.20344 938.15034 215.09387 918.0008 C 215.61238 906.26748 216.44676 890.66616 216.94738 883.33283 L 217.85754 870.0008 L 218.77356 880.0008 C 219.27763 885.5008 220.08334 904.25016 220.56457 921.66682 L 221.43957 953.33283 L 214.24817 953.33283 C 210.29313 953.33283 203.36901 953.71911 198.86145 954.19025 L 190.66613 955.04572 L 190.85754 931.19025 L 191.0509 907.33283 L 192.66613 921.33283 C 193.5552 929.03282 194.42898 934.73413 194.60754 934.0008 C 194.78611 933.26747 195.41298 934.16747 196.00012 936.0008 C 197.05137 939.28333 197.07048 939.27186 197.26184 935.33283 C 199.21204 895.18945 201.0767 863.81288 201.53918 863.35041 z M 502.92004 969.75861 C 561.6241 969.78884 612.80005 970.11902 603.3341 970.72346 C 595.26745 971.23854 580.26678 971.81507 570.00012 972.00471 C 542.52547 972.51221 556.13616 974.18357 602.38684 975.97932 C 674.48202 978.77851 694.58292 981.67242 649.3341 982.73908 C 615.22364 983.54317 533.27734 987.14727 538.66613 987.60627 C 540.49947 987.76243 562.99949 988.52904 588.66613 989.31135 C 632.27401 990.64051 685.90821 993.6753 702.62317 995.75861 C 706.63209 996.25827 690.43207 996.68207 666.62317 996.70197 C 620.94237 996.74004 541.17812 999.64704 536.66613 1001.4383 C 535.19948 1002.0205 546.89948 1002.5444 562.66613 1002.6004 C 600.9042 1002.7369 653.40717 1004.8144 685.3341 1007.4539 C 699.63409 1008.6361 711.43308 1009.6922 711.55481 1009.8016 C 711.67652 1009.9109 686.47649 1010.2166 655.55481 1010.4813 C 543.38251 1011.4416 332.52154 1011.6769 326.66613 1010.8485 C 323.36614 1010.3816 295.9679 1010.0008 265.77942 1010.0008 C 235.59094 1010.0008 210.98958 1009.9042 211.11145 1009.786 C 211.23329 1009.6679 223.63282 1008.6126 238.66613 1007.4422 C 271.26005 1004.9044 326.67583 1002.7264 362.66613 1002.5692 C 378.39245 1002.5005 387.3503 1002.0197 385.3341 1001.3504 C 380.03421 999.59117 307.54842 997.30721 257.44348 997.32111 C 232.20462 997.32805 211.81549 997.07408 212.13293 996.75666 C 213.39979 995.4898 292.84862 990.64411 338.66613 989.03986 L 387.3341 987.33674 L 367.3341 986.24689 C 356.33411 985.64808 313.43341 985.04826 272.00012 984.91291 C 230.56682 984.77755 200.86678 984.24906 206.00012 983.73908 C 241.63089 980.19927 330.07677 974.7259 352.25403 974.6883 C 359.40482 974.67618 365.54408 974.07071 366.00012 973.33283 C 366.53336 972.47003 359.62079 971.91258 346.41223 971.75275 C 327.53357 971.52431 328.35454 971.43865 357.3341 970.59846 C 377.98357 969.9998 444.21598 969.72839 502.92004 969.75861 z " />
  </g>
</svg>
